<?xml version="1.0" encoding="UTF-8"?>
<svg width="133px" height="474px" viewBox="0 0 133 474" version="1.1" xmlns="http://www.w3.org/2000/svg" xmlns:xlink="http://www.w3.org/1999/xlink">
    <!-- Generator: Sketch 59.1 (86144) - https://sketch.com -->
    <title>controls_right</title>
    <desc>Created with Sketch.</desc>
    <defs>
        <rect id="path-1" x="0" y="29" width="31" height="17" rx="3"></rect>
        <filter x="-3.2%" y="-5.9%" width="106.5%" height="123.5%" filterUnits="objectBoundingBox" id="filter-2">
            <feOffset dx="0" dy="2" in="SourceAlpha" result="shadowOffsetOuter1"></feOffset>
            <feColorMatrix values="0 0 0 0 0   0 0 0 0 0   0 0 0 0 0  0 0 0 0.5 0" type="matrix" in="shadowOffsetOuter1"></feColorMatrix>
        </filter>
        <rect id="path-3" x="0" y="117" width="31" height="17" rx="3"></rect>
        <filter x="-3.2%" y="-5.9%" width="106.5%" height="123.5%" filterUnits="objectBoundingBox" id="filter-4">
            <feOffset dx="0" dy="2" in="SourceAlpha" result="shadowOffsetOuter1"></feOffset>
            <feColorMatrix values="0 0 0 0 0   0 0 0 0 0   0 0 0 0 0  0 0 0 0.5 0" type="matrix" in="shadowOffsetOuter1"></feColorMatrix>
        </filter>
        <rect id="path-5" x="0" y="68" width="31" height="17" rx="3"></rect>
        <filter x="-3.2%" y="-5.9%" width="106.5%" height="123.5%" filterUnits="objectBoundingBox" id="filter-6">
            <feOffset dx="0" dy="2" in="SourceAlpha" result="shadowOffsetOuter1"></feOffset>
            <feColorMatrix values="0 0 0 0 0   0 0 0 0 0   0 0 0 0 0  0 0 0 0.5 0" type="matrix" in="shadowOffsetOuter1"></feColorMatrix>
        </filter>
        <filter x="-39.1%" y="-39.1%" width="178.3%" height="178.3%" filterUnits="objectBoundingBox" id="filter-7">
            <feGaussianBlur stdDeviation="6" in="SourceGraphic"></feGaussianBlur>
        </filter>
    </defs>
    <g id="Page-1" stroke="none" stroke-width="1" fill="none" fill-rule="evenodd">
        <g id="03.-Battle-01" transform="translate(-24.000000, -422.000000)">
            <g id="screen1" transform="translate(38.000000, 378.000000)">
                <g id="controls_right" transform="translate(0.000000, 44.000000)">
                    <g id="slider" transform="translate(7.000000, 0.000000)">
                        <rect id="Rectangle" fill="#000000" x="13" y="0" width="5" height="188" rx="2.5"></rect>
                        <g id="Rectangle">
                            <use fill="black" fill-opacity="1" filter="url(#filter-2)" xlink:href="#path-1"></use>
                            <use fill="#D9007D" fill-rule="evenodd" xlink:href="#path-1"></use>
                        </g>
                    </g>
                    <g id="slider" transform="translate(46.000000, 0.000000)">
                        <rect id="Rectangle" fill="#000000" x="13" y="0" width="5" height="188" rx="2.5"></rect>
                        <g id="Rectangle">
                            <use fill="black" fill-opacity="1" filter="url(#filter-4)" xlink:href="#path-3"></use>
                            <use fill="#D9007D" fill-rule="evenodd" xlink:href="#path-3"></use>
                        </g>
                    </g>
                    <g id="slider" transform="translate(85.000000, 0.000000)">
                        <rect id="Rectangle" fill="#000000" x="13" y="0" width="5" height="188" rx="2.5"></rect>
                        <g id="Rectangle">
                            <use fill="black" fill-opacity="1" filter="url(#filter-6)" xlink:href="#path-5"></use>
                            <use fill="#D9007D" fill-rule="evenodd" xlink:href="#path-5"></use>
                        </g>
                    </g>
                    <g id="button-on" transform="translate(0.000000, 414.000000)">
                        <circle id="Oval" fill="#130532" cx="23" cy="23" r="16"></circle>
                        <circle id="Oval" fill="#C12980" cx="23" cy="23" r="12"></circle>
                        <circle id="Oval" fill="#C02980" opacity="0.527250744" filter="url(#filter-7)" cx="23" cy="23" r="23"></circle>
                    </g>
                    <g id="button-off" transform="translate(47.000000, 421.000000)">
                        <circle id="Oval" fill="#130532" cx="16" cy="16" r="16"></circle>
                        <circle id="Oval" fill="#831253" cx="16" cy="16" r="12"></circle>
                    </g>
                    <g id="button-off-copy" transform="translate(87.000000, 421.000000)">
                        <circle id="Oval" fill="#130532" cx="16" cy="16" r="16"></circle>
                        <circle id="Oval" fill="#831253" cx="16" cy="16" r="12"></circle>
                    </g>
                    <g id="button-panel" transform="translate(7.000000, 213.000000)">
                        <rect id="Rectangle" fill="#130532" x="0" y="0" width="109" height="184" rx="11"></rect>
                        <rect id="Rectangle" fill="#7A56C9" x="8" y="12" width="26" height="20" rx="4"></rect>
                        <rect id="Rectangle-Copy-3" fill="#7A56C9" opacity="0.403204055" x="8" y="40" width="26" height="20" rx="4"></rect>
                        <rect id="Rectangle-Copy-6" fill="#7A56C9" x="8" y="68" width="26" height="20" rx="4"></rect>
                        <rect id="Rectangle-Copy-15" fill="#7A56C9" x="8" y="152" width="26" height="20" rx="4"></rect>
                        <rect id="Rectangle-Copy-12" fill="#7A56C9" opacity="0.368024554" x="8" y="124" width="26" height="20" rx="4"></rect>
                        <rect id="Rectangle-Copy-9" fill="#7A56C9" x="8" y="96" width="26" height="20" rx="4"></rect>
                        <rect id="Rectangle-Copy" fill="#7A56C9" opacity="0.402064732" x="42" y="12" width="26" height="20" rx="4"></rect>
                        <rect id="Rectangle-Copy-4" fill="#7A56C9" x="42" y="40" width="26" height="20" rx="4"></rect>
                        <rect id="Rectangle-Copy-7" fill="#7A56C9" x="42" y="68" width="26" height="20" rx="4"></rect>
                        <rect id="Rectangle-Copy-16" fill="#7A56C9" x="42" y="152" width="26" height="20" rx="4"></rect>
                        <rect id="Rectangle-Copy-13" fill="#7A56C9" x="42" y="124" width="26" height="20" rx="4"></rect>
                        <rect id="Rectangle-Copy-10" fill="#7A56C9" opacity="0.402064732" x="42" y="96" width="26" height="20" rx="4"></rect>
                        <rect id="Rectangle-Copy-2" fill="#7A56C9" x="75" y="12" width="26" height="20" rx="4"></rect>
                        <rect id="Rectangle-Copy-5" fill="#7A56C9" x="75" y="40" width="26" height="20" rx="4"></rect>
                        <rect id="Rectangle-Copy-8" fill="#7A56C9" opacity="0.397065662" x="75" y="68" width="26" height="20" rx="4"></rect>
                        <rect id="Rectangle-Copy-17" fill="#7A56C9" opacity="0.397065662" x="75" y="152" width="26" height="20" rx="4"></rect>
                        <rect id="Rectangle-Copy-14" fill="#7A56C9" opacity="0.397065662" x="75" y="124" width="26" height="20" rx="4"></rect>
                        <rect id="Rectangle-Copy-11" fill="#7A56C9" x="75" y="96" width="26" height="20" rx="4"></rect>
                    </g>
                </g>
            </g>
        </g>
    </g>
</svg>