<?xml version="1.0" encoding="UTF-8" standalone="no"?>
<svg
   xmlns:rdf="http://www.w3.org/1999/02/22-rdf-syntax-ns#"
   xmlns:svg="http://www.w3.org/2000/svg"
   xmlns="http://www.w3.org/2000/svg"
   id="svg6"
   xml:space="preserve"
   enable-background="new 0 0 1000 1000"
   viewBox="0 0 1000 1000"
   version="1.1"><metadata
   id="metadata12"><rdf:RDF><cc:Work
       rdf:about=""><dc:format>image/svg+xml</dc:format><dc:type
         rdf:resource="http://purl.org/dc/dcmitype/StillImage" /><dc:title></dc:title></cc:Work></rdf:RDF></metadata><defs
   id="defs10" />
<circle r="500" style="fill:#446ADB;fill-rule:evenodd"
   cx="500"
   cy="500" />
<g transform="matrix(0.67894436,0,0,0.67894436,160.56159,160.52782)" style="fill:#ffffff" ><path
     id="path2"
     d="m 949.4,890 c -26.5,26.6 -60.5,40.7 -98,40.7 H 148.7 C 72.2,930.6 10,868.4 10,791.9 V 363.1 c 0,-37.6 14.1,-71.5 40.6,-98.1 26.6,-26.6 60.5,-40.6 98,-40.6 h 105.7 l 27.2,-67.9 C 303,102.7 352.3,69.3 410.3,69.3 h 179.4 c 57.9,0 107.2,33.4 128.8,87.2 l 27.1,67.8 h 105.7 c 76.5,0 138.6,62.2 138.6,138.7 v 428.8 c 0.1,37.8 -14,71.7 -40.5,98.2 z M 907.1,363.1 c 0,-30.8 -25,-55.8 -55.8,-55.8 H 689.5 l -48,-120 c -8.8,-22 -28.1,-35.1 -51.8,-35.1 H 410.3 c -23.7,0 -43,13.1 -51.8,35 l -48,120 H 148.7 c -15.8,0 -28.3,5.2 -39.5,16.4 -11.1,11.1 -16.3,23.7 -16.3,39.4 v 428.8 c 0,30.8 25,55.8 55.8,55.8 h 702.7 c 15.8,0 28.3,-5.2 39.4,-16.3 11.1,-11.1 16.3,-23.6 16.3,-39.4 z m -407,430.7 c -130.1,0 -236,-105.8 -236,-235.7 0,-130 105.9,-235.7 236,-235.7 130.1,0 236,105.7 236,235.7 0.1,130 -105.8,235.7 -236,235.7 z m 0,-388.5 c -84.4,0 -153.1,68.5 -153.1,152.8 0,84.2 68.7,152.8 153.1,152.8 84.5,0 153.1,-68.6 153.1,-152.8 0.1,-84.3 -68.6,-152.8 -153.1,-152.8 z" /></g>
</svg>